<svg id="_001" viewBox="0 0 17868.04 17045.47">
    <defs>
        <lineargradient id-"grad" x1="0%" y1="0%" x2="100%" y2="0%">
            <stop offset ="0%" style="stop-color :#686de0; stop-opacity:1;"></stop>
            <stop offset ="100%" style="stop-color :#e056fd; stop-opacity:1;"></stop>

    </defs>    
    <path class="cls w0" d="M-1757,9961.67c989.64,770.6,2799.92,1534.73,3650,783.33,426.06-376.6,625.56-1146.84,383.33-1733.33C1803.46,7866.69-40.86,8177.57-357,7145c-172.62-563.8,214-1189.58,550-1733.33C646.93,4677,1215.53,4321.9,1343,4245c275.1-166,735.95-436,1350-416.67,110.54,3.49,935.86,29.53,1083.33,466.67,59.34,175.89.41,393.09-133.33,516.67-239.6,221.38-705.12,129.15-866.67-100-208.14-295.25,70.47-843.09,366.67-1150,317.85-329.34,633.49-358,1733.33-650,873.4-231.9,1310.1-347.85,1583.34-483.34,425.72-211.1,1481.95-734.85,1516.66-1550,34.93-820.21-987.09-1402.66-1166.66-1500C6032.54-1042.89,4679.26-1243.06,3793-355c-706.95,708.38-943.85,1935.94-466.67,2566.67,397,524.78,1020.09,281.71,2833.34,916.66,930.88,326,1398.28,496.52,1493.87,866.67,146.79,568.38-735.42,949.67-1493.87,2116.67-245.89,378.33-1339.45,2060.93-783.34,3300,548.5,1222.09,2545.77,1665.09,4016.67,1266.66,1602.44-434,2434.27-1827.24,2916-2661.8,210.95-365.42,3509-6303.83-223-10875.87C9215.24-6376.41,4005.23-6854.17,318.32-4643.08-4257.66-1898.79-4288,3668.52-3794.19,6183.24-3629.06,7024.15-3255.43,8794.88-1757,9961.67Z"/>
    <path class="cls w1" d="M-1391.1,13590.73c728.19,13.34,1043.63-507.71,1734.2-891.88,658.33-366.23,1159.66-331.06,3790.45-148.64,2398.72,166.32,3605.39,246,3963.87,74.32,1347.16-645.1,2345.27-2520.62,1957.16-3963.87C9972.88,8356.85,9733.16,7713,6165,5489.56,3729,3971.56,2895.12,3682.47,2671.87,2739.63,2385.77,1531.34,3490.77,889.36,3093-158.95,2687-1229.24,1025.57-1903.15-251.48-1571.08-2081.55-1095.21-2969.32,1406.73-2605,3284.66c492.08,2536.68,4712.31,2656.22,4632.77,3889.55C1938.47,8558.5-3010,8643.13-3422.58,10840.79c-113.64,605.38,98.24,1470.54,644.13,2056.26C-2680,13002.68-2144.82,13576.92-1391.1,13590.73Z"/>
    <path class="cls w2" d="M1111.1-1719.73c166.77,143.64,564.47,493.48,842.32,1090.07,91.09,195.58,522.77,1122.49,198.19,2056.26-240.29,691.29-632.53,631.07-1238.71,1585.55-361.54,569.27-847.49,1334.45-545,1858.06,258.84,448.1,1057.72,654.61,1486.45,346.84,586-420.63,161.49-1572.89,99.1-1734.2C1885.6,3307.5,1542.1,2419.41,838.58,2293.69,23,2148-989.14,3078-1093.81,3978.34-1227.75,5130.56,208.75,5511,1680.9,7570.6c507.36,709.8,1948,2725.33,1783.75,5301.67-44.29,694.54-190.13,2981.81-1808.52,3914.33-1709.25,984.86-3917-200.6-4558.45-545C-6542.86,14286.75-8867.08,9066.17-7312.13,6133.69c1171.9-2210.07,3960.18-2013.53,4385-4137.29C-2541.67,69.71-4615.41-1197.23-3967.61-2215.21-3291.38-3277.88-345.95-2974.67,1111.1-1719.73Z"/>
    <path class="cls w3" d="M3700,4674.58c-602.21-312.55-1009.75-434-1021.94-706.06-15-335.85,579.33-742.26,1133.42-706.07,627.39,41,1142.59,645.43,1152,1170.58C4973,4964.34,4461.3,5218.6,3792.9,5882.32c-591,586.9-1822.83,1810.1-1839.48,3233-17.58,1502.14,1326.86,2559.33,1616.52,2787.1,1977.34,1554.88,4502.56,746.55,5035.35,576,752.3-240.81,1329.48-425.57,1616.52-966.19,421.39-793.67-258.27-1458.28-353-3456-17.7-373.21-47.9-1097.13,111.49-2006.71,282.77-1613.67,831-1921.29,687.48-2805.68-159-980-784.45-1764.3-1226.32-2155.35C8357.56,129.3,7865.85-173.47,6988.77-379.35c-1263.48-296.59-4132.92-615.5-4096.33,995,18.41,810.92,122.92,723.44,1643.69,1903.55,1203.18,933.66,1390.95,1086.2,1579.35,1412.12,516.79,894,497.56,2157,74.33,2359.75C5791.84,6481.73,5404,5559,3700,4674.58Z"/>
    <path class="cls w4" d="M4471.63,2987.37C3618.47,2868,3334.17,2839.49,3158.6,2591c-364-515.22,315-1161.14,24.77-1957.16C2906.44-125.82,1969.71-410.92,1820.79-456.24,199.8-949.6-1336,567.67-1474.18,708.15-2549.27,1800.88-3243.53,3740.46-2539.47,4622.47c562.35,704.47,1501.77,89.11,3319.74,817.55,264.61,106,2379.89,953.57,2403.1,2105.8,17.13,850.27-1122.64,989.65-1833.29,2254.45C626.21,11088.6,606.91,13083,1622.6,14383.5,3066,16231.61,5933.43,15825.21,7395,15275.37c1218.47-458.39,3221.39-1679.19,3072-3047.22C10300.39,10702.5,7556,9901,7295.89,9825.05c-727.34-212.42-1384.4,147.07-1684.65-247.74-253.08-332.79-128.67-911.68,148.65-1263.49,369.66-468.95,1107.61-656.91,1684.64-297.29C8055.62,8397.38,8105.12,9178,7915.24,9676.4c-193.94,509.12-739.27,990.88-1114.84,867.1-422.14-139.13-634.24-1044.73-322.06-1585.55,355.59-616,1129.34-304.72,1882.84-916.64C9074.5,7462,9431,6330.33,9178.73,5390.47,8791,3946.06,7093.43,3432.63,6850,3359,6610.3,3286.5,5897.41,3186.79,4471.63,2987.37Z"/>
    </svg>