<svg id="_002" data-name="002" xmlns="http://www.w3.org/2000/svg" viewBox="0 0 13592.46 15248.24"><defs><style>.cls-1{fill:none;stroke:#231815;stroke-miterlimit:10;}</style></defs><title>002</title><path class="cls-1" d="M-1391.1,13590.73c728.19,13.34,1043.63-507.71,1734.2-891.88,658.33-366.23,1159.66-331.06,3790.45-148.64,2398.72,166.32,3605.39,246,3963.87,74.32,1347.16-645.1,2345.27-2520.62,1957.16-3963.87C9972.88,8356.85,9733.16,7713,6165,5489.56,3729,3971.56,2895.12,3682.47,2671.87,2739.63,2385.77,1531.34,3490.77,889.36,3093-158.95,2687-1229.24,1025.57-1903.15-251.48-1571.08-2081.55-1095.21-2969.32,1406.73-2605,3284.66c492.08,2536.68,4712.31,2656.22,4632.77,3889.55C1938.47,8558.5-3010,8643.13-3422.58,10840.79c-113.64,605.38,98.24,1470.54,644.13,2056.26C-2680,13002.68-2144.82,13576.92-1391.1,13590.73Z" transform="translate(3452.79 1656.76)"/></svg>