<svg id="_003" data-name="003" xmlns="http://www.w3.org/2000/svg" viewBox="0 0 11281.23 20032.66"><defs><style>.cls-1{fill:none;stroke:#231815;stroke-miterlimit:10;}</style></defs><title>003</title><path class="cls-1" d="M1111.1-1719.73c166.77,143.64,564.47,493.48,842.32,1090.07,91.09,195.58,522.77,1122.49,198.19,2056.26-240.29,691.29-632.53,631.07-1238.71,1585.55-361.54,569.27-847.49,1334.45-545,1858.06,258.84,448.1,1057.72,654.61,1486.45,346.84,586-420.63,161.49-1572.89,99.1-1734.2C1885.6,3307.5,1542.1,2419.41,838.58,2293.69,23,2148-989.14,3078-1093.81,3978.34-1227.75,5130.56,208.75,5511,1680.9,7570.6c507.36,709.8,1948,2725.33,1783.75,5301.67-44.29,694.54-190.13,2981.81-1808.52,3914.33-1709.25,984.86-3917-200.6-4558.45-545C-6542.86,14286.75-8867.08,9066.17-7312.13,6133.69c1171.9-2210.07,3960.18-2013.53,4385-4137.29C-2541.67,69.71-4615.41-1197.23-3967.61-2215.21-3291.38-3277.88-345.95-2974.67,1111.1-1719.73Z" transform="translate(7803.11 2862.62)"/></svg>