<svg id="_004" data-name="004" xmlns="http://www.w3.org/2000/svg" viewBox="0 0 8747.03 13470.38"><defs><style>.cls-1{fill:none;stroke:#6c4e2d;stroke-miterlimit:10;stroke-width:9px;}</style></defs><title>004</title><path class="cls-1" d="M3700,4674.58c-602.21-312.55-1009.75-434-1021.94-706.06-15-335.85,579.33-742.26,1133.42-706.07,627.39,41,1142.59,645.43,1152,1170.58C4973,4964.34,4461.3,5218.6,3792.9,5882.32c-591,586.9-1822.83,1810.1-1839.48,3233-17.58,1502.14,1326.86,2559.33,1616.52,2787.1,1977.34,1554.88,4502.56,746.55,5035.35,576,752.3-240.81,1329.48-425.57,1616.52-966.19,421.39-793.67-258.27-1458.28-353-3456-17.7-373.21-47.9-1097.13,111.49-2006.71,282.77-1613.67,831-1921.29,687.48-2805.68-159-980-784.45-1764.3-1226.32-2155.35C8357.56,129.3,7865.85-173.47,6988.77-379.35c-1263.48-296.59-4132.92-615.5-4096.33,995,18.41,810.92,122.92,723.44,1643.69,1903.55,1203.18,933.66,1390.95,1086.2,1579.35,1412.12,516.79,894,497.56,2157,74.33,2359.75C5791.84,6481.73,5404,5559,3700,4674.58Z" transform="translate(-1948.75 625.57)"/></svg>