<svg id="_005" data-name="005" xmlns="http://www.w3.org/2000/svg" viewBox="0 0 13308.22 16301.71"><defs><style>.cls-1{fill:none;stroke:#6c4e2d;stroke-miterlimit:10;stroke-width:9px;}</style></defs><title>005</title><path class="cls-1" d="M4471.63,2987.37C3618.47,2868,3334.17,2839.49,3158.6,2591c-364-515.22,315-1161.14,24.77-1957.16C2906.44-125.82,1969.71-410.92,1820.79-456.24,199.8-949.6-1336,567.67-1474.18,708.15-2549.27,1800.88-3243.53,3740.46-2539.47,4622.47c562.35,704.47,1501.77,89.11,3319.74,817.55,264.61,106,2379.89,953.57,2403.1,2105.8,17.13,850.27-1122.64,989.65-1833.29,2254.45C626.21,11088.6,606.91,13083,1622.6,14383.5,3066,16231.61,5933.43,15825.21,7395,15275.37c1218.47-458.39,3221.39-1679.19,3072-3047.22C10300.39,10702.5,7556,9901,7295.89,9825.05c-727.34-212.42-1384.4,147.07-1684.65-247.74-253.08-332.79-128.67-911.68,148.65-1263.49,369.66-468.95,1107.61-656.91,1684.64-297.29C8055.62,8397.38,8105.12,9178,7915.24,9676.4c-193.94,509.12-739.27,990.88-1114.84,867.1-422.14-139.13-634.24-1044.73-322.06-1585.55,355.59-616,1129.34-304.72,1882.84-916.64C9074.5,7462,9431,6330.33,9178.73,5390.47,8791,3946.06,7093.43,3432.63,6850,3359,6610.3,3286.5,5897.41,3186.79,4471.63,2987.37Z" transform="translate(2828.83 559.03)"/></svg>